<svg xmlns="http://www.w3.org/2000/svg" viewBox="0 0 128 128">
  <!-- Background -->
  <rect width="128" height="128" rx="28" fill="#2e7d52"/>

  <!-- Beads ring (18 beads, radius 38 from center 64,64) -->
  <circle cx="64"    cy="26"    r="5.5" fill="white" opacity="0.95"/>
  <circle cx="77"    cy="28.3"  r="5.5" fill="white" opacity="0.95"/>
  <circle cx="88.4"  cy="34.9"  r="5.5" fill="white" opacity="0.95"/>
  <circle cx="96.9"  cy="45"    r="5.5" fill="white" opacity="0.95"/>
  <circle cx="101.4" cy="57.4"  r="5.5" fill="white" opacity="0.95"/>
  <circle cx="101.4" cy="70.6"  r="5.5" fill="white" opacity="0.95"/>
  <circle cx="96.9"  cy="83"    r="5.5" fill="white" opacity="0.95"/>
  <circle cx="88.4"  cy="93.1"  r="5.5" fill="white" opacity="0.95"/>
  <circle cx="77"    cy="99.7"  r="5.5" fill="white" opacity="0.95"/>
  <circle cx="64"    cy="102"   r="5.5" fill="white" opacity="0.95"/>
  <circle cx="51"    cy="99.7"  r="5.5" fill="white" opacity="0.95"/>
  <circle cx="39.6"  cy="93.1"  r="5.5" fill="white" opacity="0.95"/>
  <circle cx="31.1"  cy="83"    r="5.5" fill="white" opacity="0.95"/>
  <circle cx="26.6"  cy="70.6"  r="5.5" fill="white" opacity="0.95"/>
  <circle cx="26.6"  cy="57.4"  r="5.5" fill="white" opacity="0.95"/>
  <circle cx="31.1"  cy="45"    r="5.5" fill="white" opacity="0.95"/>
  <circle cx="39.6"  cy="34.9"  r="5.5" fill="white" opacity="0.95"/>
  <circle cx="51"    cy="28.3"  r="5.5" fill="white" opacity="0.95"/>

  <!-- Tassel connector bead (larger, top center) -->
  <circle cx="64" cy="17" r="7" fill="white"/>

  <!-- Tassel body -->
  <rect x="60.5" y="6" width="7" height="10" rx="3.5" fill="white"/>
  <!-- Tassel strands -->
  <line x1="61" y1="6" x2="59" y2="1"  stroke="white" stroke-width="1.8" stroke-linecap="round"/>
  <line x1="64" y1="6" x2="64" y2="1"  stroke="white" stroke-width="1.8" stroke-linecap="round"/>
  <line x1="67" y1="6" x2="69" y2="1"  stroke="white" stroke-width="1.8" stroke-linecap="round"/>
</svg>
